<?xml version="1.0" standalone="no"?>
<!DOCTYPE svg PUBLIC "-//W3C//DTD SVG 20010904//EN"
 "http://www.w3.org/TR/2001/REC-SVG-20010904/DTD/svg10.dtd">
<svg version="1.0" xmlns="http://www.w3.org/2000/svg"
 width="700.000000pt" height="700.000000pt" viewBox="0 0 700.000000 700.000000"
 preserveAspectRatio="xMidYMid meet">
<metadata>
Created by potrace 1.11, written by Peter Selinger 2001-2013
</metadata>
<g transform="translate(0.000000,700.000000) scale(0.100000,-0.100000)"
fill="#000000" stroke="none">
<path d="M5357 6284 c-1 -1 -42 -4 -90 -8 -48 -4 -99 -11 -111 -16 -13 -5 -26
-7 -28 -4 -8 7 -217 -65 -296 -102 -74 -35 -188 -106 -249 -155 -35 -29 -221
-216 -247 -248 -70 -89 -256 -414 -256 -447 0 -3 -7 -20 -15 -37 -40 -88 -118
-357 -140 -487 -12 -75 3 -69 -202 -72 l-186 -3 -33 -60 c-42 -77 -65 -167
-67 -264 l-2 -76 67 -1 c77 -2 233 -12 263 -18 11 -3 33 -5 48 -5 32 -1 32 13
0 -181 -8 -52 -17 -113 -19 -135 -3 -22 -9 -65 -14 -95 -5 -30 -12 -77 -15
-105 -3 -27 -7 -61 -10 -75 -2 -14 -7 -50 -10 -80 -4 -30 -8 -62 -10 -70 -1
-8 -6 -42 -9 -75 -9 -80 -13 -116 -25 -210 -6 -44 -13 -100 -16 -125 -9 -73
-36 -283 -40 -310 -4 -24 -8 -59 -21 -152 -3 -24 -7 -50 -9 -58 -2 -8 -6 -35
-9 -60 -3 -25 -7 -54 -10 -65 -2 -11 -7 -42 -11 -70 -15 -111 -20 -140 -51
-330 -21 -128 -61 -358 -68 -390 -3 -12 -17 -83 -21 -105 -24 -128 -97 -353
-138 -420 -40 -66 -68 -87 -132 -99 -39 -8 -219 -7 -322 1 -17 2 -17 1 11 43
47 69 124 231 150 315 32 104 43 183 40 286 -8 276 -124 473 -345 585 -56 28
-199 74 -263 84 -17 3 -44 8 -60 11 -79 16 -317 31 -541 33 -559 6 -693 25
-711 103 -15 68 -2 121 49 196 21 32 33 42 45 37 20 -8 27 -10 117 -29 112
-24 193 -32 310 -30 377 4 645 106 858 326 122 127 233 337 262 497 2 14 9 49
14 76 5 28 8 111 7 185 -4 158 -28 255 -102 407 -24 50 -44 93 -44 96 0 2 30
-2 68 -10 37 -7 83 -16 102 -19 37 -6 244 -51 270 -59 13 -4 15 11 14 103 -3
177 -18 297 -50 409 l-14 52 -508 0 c-438 -1 -516 1 -577 15 -109 26 -167 31
-350 30 -284 -1 -479 -54 -685 -189 -225 -147 -386 -403 -425 -680 -4 -27 -9
-59 -11 -70 -6 -28 -5 -212 1 -257 3 -21 7 -53 9 -70 7 -65 48 -194 83 -267
44 -88 100 -166 173 -238 51 -51 52 -54 37 -77 -9 -13 -22 -30 -30 -38 -30
-30 -108 -152 -142 -221 -89 -187 -100 -460 -24 -621 12 -27 47 -75 77 -107
30 -33 50 -59 46 -59 -9 0 -35 -21 -104 -83 -147 -132 -224 -324 -224 -557 1
-241 66 -428 203 -582 117 -132 373 -244 621 -273 117 -13 139 -14 275 -15
297 -1 516 51 786 186 l86 43 54 -40 c57 -43 202 -117 284 -144 183 -61 386
-51 555 28 134 62 270 173 391 317 173 206 362 587 480 969 29 91 104 369 113
415 2 12 14 65 26 120 28 127 27 120 51 261 11 66 22 131 24 145 3 14 12 72
20 130 9 58 20 130 25 160 5 30 12 72 15 94 6 49 14 106 19 133 3 12 7 43 11
70 3 26 10 71 15 98 5 28 11 66 14 85 5 30 65 387 81 475 3 17 10 53 16 81 5
28 12 64 15 80 17 104 25 139 32 145 4 4 43 11 87 14 44 4 89 9 100 11 11 2
91 7 178 10 l158 7 -4 -37 c-2 -20 -1 -36 2 -37 3 0 49 -2 101 -4 264 -11 307
-40 335 -225 6 -43 7 -1334 0 -1410 -18 -222 -82 -287 -290 -295 -44 -2 -83
-4 -86 -4 -8 -1 -35 -99 -44 -156 -3 -22 -8 -93 -10 -158 l-4 -118 117 6 c338
20 922 20 1295 1 l118 -7 -5 123 c-6 157 -32 292 -58 309 -6 4 -24 5 -41 3
-18 -1 -58 1 -91 6 -115 18 -162 86 -181 262 -2 24 -5 486 -5 1028 -2 915 -3
989 -19 1037 -33 97 -94 162 -180 191 -31 11 -38 9 -79 -18 -65 -43 -220 -96
-367 -125 -149 -30 -290 -52 -331 -51 l-49 1 0 40 -1 40 -282 3 c-184 1 -282
6 -282 13 0 45 104 470 157 639 107 345 208 473 373 473 122 -1 202 -58 227
-163 7 -34 22 -81 32 -104 25 -54 29 -74 37 -186 4 -52 8 -97 10 -99 4 -5 186
-1 214 4 13 2 38 9 56 15 18 6 63 13 101 16 124 8 202 43 291 131 86 85 123
167 128 283 4 95 -9 158 -49 235 -53 105 -163 190 -277 215 -30 7 -91 23 -135
36 -137 40 -198 52 -320 60 -146 9 -165 10 -168 8z m-3627 -1933 c31 -11 74
-34 97 -51 102 -75 199 -257 230 -430 10 -57 10 -302 0 -355 -32 -170 -103
-282 -214 -336 -93 -45 -279 -28 -385 34 -134 79 -231 258 -253 467 -7 67 -7
219 0 265 25 163 99 321 177 377 85 60 236 73 348 29z m-25 -2576 c168 -5 257
-11 305 -20 14 -3 45 -8 70 -11 67 -9 191 -52 226 -79 97 -74 109 -266 28
-427 -35 -70 -172 -204 -249 -245 -59 -31 -163 -68 -216 -77 -295 -49 -578 -2
-683 115 -40 43 -75 107 -88 159 -5 19 -11 44 -14 55 -12 44 -19 184 -12 250
12 117 42 186 123 282 10 12 61 12 510 -2z"/>
</g>
</svg>
