<svg width="523" height="82" viewBox="0 0 523 82" fill="none" xmlns="http://www.w3.org/2000/svg">
<path d="M15.4797 81.9178C12.0634 81.9178 9.2632 81.4698 7.079 80.5737C4.95082 79.7336 3.38268 78.4735 2.37459 76.7934C1.3665 75.1132 0.862455 73.0411 0.862455 70.5768C0.862455 68.4487 1.4225 66.6005 2.5426 65.0324C3.71871 63.4642 5.34285 62.2321 7.41503 61.336L11.6154 61.6721C10.2713 62.6801 9.3472 63.7442 8.84316 64.8643C8.33911 65.9844 8.08709 67.3006 8.08709 68.8127C8.08709 71.6689 8.78715 73.8251 10.1873 75.2813C11.6434 76.7374 14.0796 77.4654 17.4959 77.4654C21.1922 77.4654 24.0765 76.5414 26.1487 74.6932C28.2769 72.845 29.341 70.7169 29.341 68.3086C29.341 66.9085 28.9769 65.7604 28.2489 64.8643C27.5768 64.0243 26.2327 63.4082 24.2165 63.0162C22.2563 62.6241 19.3441 62.4281 15.4797 62.4281C12.9595 62.4281 10.8873 62.2881 9.26319 62.0081C7.69506 61.7841 6.43495 61.392 5.48286 60.832C4.58678 60.2159 3.94273 59.4599 3.55069 58.5638C3.21466 57.6677 3.04665 56.5756 3.04665 55.2875C3.04665 53.4393 3.57869 51.6472 4.64279 49.911C5.76289 48.1189 7.19101 46.5227 8.92717 45.1226L12.0354 47.3068C10.9153 48.2589 10.1033 49.155 9.59922 49.995C9.15119 50.8351 8.92717 51.5632 8.92717 52.1792C8.92717 53.1873 9.17919 53.9434 9.68323 54.4474C10.2433 54.9515 11.3914 55.2875 13.1275 55.4555C14.8637 55.6235 17.5239 55.7075 21.1082 55.7075C24.8606 55.7075 27.8288 56.0156 30.013 56.6316C32.2532 57.2477 33.8494 58.2558 34.8014 59.6559C35.8095 61 36.3136 62.7922 36.3136 65.0324C36.3136 66.9365 35.7815 68.8687 34.7174 70.8289C33.7093 72.845 32.2812 74.6652 30.4331 76.2893C28.5849 77.9695 26.3727 79.3136 23.7965 80.3217C21.2763 81.3858 18.504 81.9178 15.4797 81.9178ZM17.4959 49.323C14.8637 49.323 12.3715 48.8189 10.0193 47.8108C7.66705 46.8027 5.76289 45.2906 4.30676 43.2744C2.90664 41.2583 2.20657 38.738 2.20657 35.7138C2.20657 33.1375 2.76662 30.8133 3.88672 28.7412C5.00682 26.613 6.68697 24.9328 8.92717 23.7007C11.2234 22.4126 14.0236 21.7685 17.3279 21.7685C20.0721 21.7685 22.4244 22.2446 24.3845 23.1967C26.3447 24.0928 27.9408 25.2689 29.1729 26.725C30.4051 28.1251 31.3011 29.6092 31.8612 31.1774C32.4212 32.6895 32.7013 34.0336 32.7013 35.2097C32.7013 37.842 32.1132 40.2222 30.9371 42.3504C29.817 44.4785 28.1089 46.1867 25.8127 47.4748C23.5725 48.7069 20.8002 49.323 17.4959 49.323ZM18.504 45.4586C20.3522 45.4586 21.8643 44.7026 23.0404 43.1904C24.2165 41.6223 24.8046 39.3821 24.8046 36.4698C24.8046 33.5016 24.0765 30.9534 22.6204 28.8252C21.1642 26.641 19.1201 25.5489 16.4878 25.5489C14.2476 25.5489 12.5955 26.501 11.5314 28.4051C10.4673 30.2533 9.93525 32.3255 9.93525 34.6217C9.93525 38.094 10.6913 40.7822 12.2035 42.6864C13.7156 44.5346 15.8158 45.4586 18.504 45.4586ZM36.9856 27.7331C36.0896 27.5091 34.9975 27.285 33.7093 27.061C32.4772 26.837 31.2451 26.641 30.013 26.473C28.7809 26.3049 27.7728 26.1929 26.9888 26.1369L21.1082 22.5246H36.3976C36.6216 23.2527 36.7616 24.0927 36.8176 25.0448C36.9296 25.9409 36.9856 26.837 36.9856 27.7331ZM62.6702 61.7561C58.8619 61.7561 55.5296 60.944 52.6734 59.3199C49.8171 57.6397 47.6049 55.3155 46.0368 52.3472C44.4686 49.323 43.6846 45.7947 43.6846 41.7623C43.6846 37.954 44.4966 34.5377 46.1208 31.5134C47.7449 28.4891 49.9851 26.1089 52.8414 24.3728C55.6976 22.6366 58.9739 21.7685 62.6702 21.7685C66.6466 21.7685 70.0349 22.6086 72.8351 24.2888C75.6914 25.9689 77.8756 28.3211 79.3877 31.3454C80.8998 34.3137 81.6559 37.786 81.6559 41.7623C81.6559 45.6266 80.8438 49.0709 79.2197 52.0952C77.6516 55.0635 75.4394 57.4157 72.5831 59.1518C69.7829 60.888 66.4786 61.7561 62.6702 61.7561ZM63.3423 57.7237C66.7026 57.7237 69.1948 56.3516 70.819 53.6073C72.4431 50.8071 73.2552 47.1948 73.2552 42.7704C73.2552 39.2981 72.7231 36.3018 71.659 33.7816C70.6509 31.2054 69.2788 29.2452 67.5427 27.9011C65.8065 26.501 63.9023 25.8009 61.8302 25.8009C58.5819 25.8009 56.1457 27.117 54.5215 29.7492C52.9534 32.3815 52.1693 35.7978 52.1693 39.9982C52.1693 43.8065 52.6174 47.0268 53.5134 49.659C54.4655 52.2912 55.7816 54.3074 57.4618 55.7075C59.1419 57.0517 61.1021 57.7237 63.3423 57.7237ZM107.381 61.7561C103.573 61.7561 100.241 60.944 97.3843 59.3199C94.5281 57.6397 92.3159 55.3155 90.7477 52.3472C89.1796 49.323 88.3955 45.7947 88.3955 41.7623C88.3955 37.954 89.2076 34.5377 90.8317 31.5134C92.4559 28.4891 94.6961 26.1089 97.5523 24.3728C100.409 22.6366 103.685 21.7685 107.381 21.7685C111.358 21.7685 114.746 22.6086 117.546 24.2888C120.402 25.9689 122.587 28.3211 124.099 31.3454C125.611 34.3137 126.367 37.786 126.367 41.7623C126.367 45.6266 125.555 49.0709 123.931 52.0952C122.363 55.0635 120.15 57.4157 117.294 59.1518C114.494 60.888 111.19 61.7561 107.381 61.7561ZM108.053 57.7237C111.414 57.7237 113.906 56.3516 115.53 53.6073C117.154 50.8071 117.966 47.1948 117.966 42.7704C117.966 39.2981 117.434 36.3018 116.37 33.7816C115.362 31.2054 113.99 29.2452 112.254 27.9011C110.517 26.501 108.613 25.8009 106.541 25.8009C103.293 25.8009 100.857 27.117 99.2325 29.7492C97.6643 32.3815 96.8803 35.7978 96.8803 39.9982C96.8803 43.8065 97.3283 47.0268 98.2244 49.659C99.1765 52.2912 100.493 54.3074 102.173 55.7075C103.853 57.0517 105.813 57.7237 108.053 57.7237ZM154.024 21.7685C155.648 21.7685 157.049 21.9086 158.225 22.1886C159.401 22.4686 160.717 22.8326 162.173 23.2807V29.7492C161.053 28.5731 159.821 27.5931 158.477 26.809C157.189 26.0249 155.564 25.6329 153.604 25.6329C152.428 25.6329 151.14 25.8849 149.74 26.389C148.396 26.837 147.08 27.6491 145.792 28.8252C144.504 30.0013 143.439 31.6534 142.599 33.7816C141.815 35.9098 141.423 38.654 141.423 42.0143C141.423 45.5986 141.955 48.4549 143.019 50.5831C144.083 52.6553 145.344 54.1674 146.8 55.1195C148.256 56.0156 149.6 56.4636 150.832 56.4636C152.456 56.4636 154.052 55.9596 155.62 54.9515C157.189 53.8874 158.477 52.1792 159.485 49.827C160.493 47.4748 160.997 44.3385 160.997 40.4182L163.433 49.323C162.705 51.1151 162.061 52.4873 161.501 53.4393C160.997 54.3914 160.605 55.0915 160.325 55.5395C159.821 56.3796 159.009 57.2757 157.889 58.2278C156.825 59.1798 155.508 60.0199 153.94 60.748C152.372 61.42 150.664 61.7561 148.816 61.7561C145.512 61.7561 142.683 61.112 140.331 59.8239C138.035 58.4798 136.243 56.4356 134.955 53.6914C133.723 50.9471 133.106 47.4188 133.106 43.1064C133.106 39.1861 133.975 35.6298 135.711 32.4375C137.447 29.1892 139.883 26.613 143.019 24.7088C146.156 22.7486 149.824 21.7685 154.024 21.7685ZM168.558 49.575C168.558 50.9191 168.67 52.0112 168.894 52.8513C169.118 53.6914 169.594 54.3074 170.322 54.6994C171.05 55.0915 172.198 55.2875 173.766 55.2875C173.766 55.8475 173.738 56.4916 173.682 57.2197C173.626 57.9477 173.486 58.5918 173.262 59.1518C171.862 59.2638 170.238 59.5439 168.39 59.9919C166.541 60.44 164.973 61.028 163.685 61.7561C163.125 61.476 162.621 61.084 162.173 60.58C161.781 60.0759 161.585 58.8438 161.585 56.8836C161.585 55.8195 161.669 54.8395 161.837 53.9434C162.061 53.0473 162.369 51.5912 162.761 49.575H168.558ZM168.558 12.6957V50.3311H160.997V12.6957H168.558ZM166.709 0.766699C167.214 0.934711 167.634 1.27074 167.97 1.77478C168.362 2.27883 168.558 3.0629 168.558 4.12699V15.804H160.997V12.6957C160.997 11.4076 160.857 10.3155 160.577 9.41946C160.353 8.52338 159.793 7.85132 158.897 7.40328C158.001 6.95524 156.601 6.73122 154.696 6.73122C154.696 6.11517 154.752 5.55512 154.864 5.05108C154.976 4.54703 155.172 4.07099 155.452 3.62295C156.293 3.62295 157.469 3.48294 158.981 3.20291C160.493 2.92289 161.977 2.58686 163.433 2.19482C164.945 1.74678 166.037 1.27074 166.709 0.766699ZM344.35 61.252C344.35 60.692 344.378 60.1039 344.434 59.4879C344.49 58.8158 344.602 58.1998 344.77 57.6397C347.01 57.6397 348.522 57.1357 349.306 56.1276C350.146 55.0635 350.566 53.1313 350.566 50.3311V33.6976C350.566 32.4095 350.426 31.3174 350.146 30.4213C349.922 29.5252 349.362 28.8532 348.466 28.4051C347.57 27.9571 346.17 27.7331 344.266 27.7331C344.266 27.117 344.322 26.557 344.434 26.0529C344.546 25.5489 344.742 25.0728 345.022 24.6248C345.862 24.6248 347.038 24.4848 348.55 24.2048C350.062 23.9247 351.546 23.5887 353.002 23.1967C354.515 22.7486 355.607 22.2726 356.279 21.7685C356.783 21.9366 357.203 22.2726 357.539 22.7766C357.931 23.2807 358.127 24.0647 358.127 25.1288V50.3311C358.127 53.1313 358.491 55.0635 359.219 56.1276C360.003 57.1357 361.291 57.6397 363.083 57.6397C363.251 58.1998 363.363 58.8438 363.419 59.5719C363.475 60.2999 363.503 60.86 363.503 61.252C362.551 61.196 361.543 61.14 360.479 61.084C359.415 61.084 358.323 61.056 357.203 61C356.139 61 355.075 61 354.01 61C352.946 61 351.826 61 350.65 61C349.53 61.056 348.438 61.084 347.374 61.084C346.31 61.14 345.302 61.196 344.35 61.252ZM353.674 12.2757C352.274 12.2757 351.098 11.7997 350.146 10.8476C349.194 9.8955 348.718 8.7474 348.718 7.40328C348.718 5.89115 349.222 4.65904 350.23 3.70695C351.238 2.75487 352.386 2.27883 353.674 2.27883C355.187 2.27883 356.391 2.75487 357.287 3.70695C358.239 4.65904 358.715 5.89115 358.715 7.40328C358.715 8.6914 358.211 9.8395 357.203 10.8476C356.251 11.7997 355.075 12.2757 353.674 12.2757ZM396.332 24.7088C396.276 26.0529 396.22 27.481 396.164 28.9932C396.164 30.5053 396.276 31.9894 396.5 33.4456C395.94 33.7816 395.296 34.0336 394.568 34.2016C393.84 34.3697 393.084 34.4537 392.299 34.4537C392.187 32.8855 391.711 31.4014 390.871 30.0013C390.087 28.6011 389.023 27.453 387.679 26.557C386.335 25.6609 384.739 25.2128 382.891 25.2128C381.155 25.2128 379.754 25.6329 378.69 26.473C377.682 27.313 377.178 28.4331 377.178 29.8333C377.178 30.7853 377.374 31.6254 377.766 32.3535C378.214 33.0815 379.138 33.8656 380.538 34.7057C381.939 35.4898 384.151 36.4698 387.175 37.6459C390.199 38.766 392.58 39.8861 394.316 41.0062C396.052 42.1263 397.284 43.3864 398.012 44.7866C398.74 46.1867 399.104 47.8948 399.104 49.911C399.104 52.2632 398.432 54.3354 397.088 56.1276C395.744 57.9197 393.896 59.3199 391.543 60.3279C389.247 61.28 386.643 61.7561 383.731 61.7561C380.37 61.7561 377.682 61.504 375.666 61C373.706 60.44 371.774 59.6559 369.87 58.6478C369.982 57.7517 370.038 56.6596 370.038 55.3715C370.094 54.0834 370.094 52.7953 370.038 51.5072C370.038 50.2191 370.01 49.127 369.954 48.2309C370.402 47.8948 371.018 47.6708 371.802 47.5588C372.642 47.3908 373.482 47.3068 374.322 47.3068C374.714 50.8351 375.778 53.4673 377.514 55.2035C379.306 56.9396 381.659 57.8077 384.571 57.8077C386.867 57.8077 388.631 57.3037 389.863 56.2956C391.151 55.2875 391.795 53.9994 391.795 52.4312C391.795 51.4232 391.543 50.5551 391.039 49.827C390.591 49.099 389.723 48.3709 388.435 47.6428C387.147 46.9148 385.243 46.0467 382.723 45.0386C379.698 43.8065 377.262 42.6584 375.414 41.5943C373.622 40.5302 372.306 39.2701 371.466 37.814C370.682 36.3578 370.29 34.5097 370.29 32.2695C370.29 30.4773 370.738 28.9372 371.634 27.6491C372.53 26.3049 373.678 25.2128 375.078 24.3728C376.534 23.4767 378.074 22.8326 379.698 22.4406C381.323 21.9926 382.835 21.7685 384.235 21.7685C386.755 21.7685 388.967 22.0206 390.871 22.5246C392.776 23.0287 394.596 23.7567 396.332 24.7088ZM432.265 24.7088C432.209 26.0529 432.153 27.481 432.097 28.9932C432.097 30.5053 432.209 31.9894 432.433 33.4456C431.873 33.7816 431.229 34.0336 430.501 34.2016C429.772 34.3697 429.016 34.4537 428.232 34.4537C428.12 32.8855 427.644 31.4014 426.804 30.0013C426.02 28.6011 424.956 27.453 423.612 26.557C422.268 25.6609 420.672 25.2128 418.824 25.2128C417.087 25.2128 415.687 25.6329 414.623 26.473C413.615 27.313 413.111 28.4331 413.111 29.8333C413.111 30.7853 413.307 31.6254 413.699 32.3535C414.147 33.0815 415.071 33.8656 416.471 34.7057C417.871 35.4898 420.084 36.4698 423.108 37.6459C426.132 38.766 428.512 39.8861 430.249 41.0062C431.985 42.1263 433.217 43.3864 433.945 44.7866C434.673 46.1867 435.037 47.8948 435.037 49.911C435.037 52.2632 434.365 54.3354 433.021 56.1276C431.677 57.9197 429.828 59.3199 427.476 60.3279C425.18 61.28 422.576 61.7561 419.664 61.7561C416.303 61.7561 413.615 61.504 411.599 61C409.639 60.44 407.707 59.6559 405.802 58.6478C405.914 57.7517 405.97 56.6596 405.97 55.3715C406.026 54.0834 406.026 52.7953 405.97 51.5072C405.97 50.2191 405.942 49.127 405.886 48.2309C406.334 47.8948 406.95 47.6708 407.735 47.5588C408.575 47.3908 409.415 47.3068 410.255 47.3068C410.647 50.8351 411.711 53.4673 413.447 55.2035C415.239 56.9396 417.591 57.8077 420.504 57.8077C422.8 57.8077 424.564 57.3037 425.796 56.2956C427.084 55.2875 427.728 53.9994 427.728 52.4312C427.728 51.4232 427.476 50.5551 426.972 49.827C426.524 49.099 425.656 48.3709 424.368 47.6428C423.08 46.9148 421.176 46.0467 418.656 45.0386C415.631 43.8065 413.195 42.6584 411.347 41.5943C409.555 40.5302 408.239 39.2701 407.399 37.814C406.614 36.3578 406.222 34.5097 406.222 32.2695C406.222 30.4773 406.67 28.9372 407.567 27.6491C408.463 26.3049 409.611 25.2128 411.011 24.3728C412.467 23.4767 414.007 22.8326 415.631 22.4406C417.255 21.9926 418.768 21.7685 420.168 21.7685C422.688 21.7685 424.9 22.0206 426.804 22.5246C428.708 23.0287 430.529 23.7567 432.265 24.7088ZM457.277 61.336C453.524 61.336 450.584 60.2439 448.456 58.0597C446.328 55.8755 445.264 51.9832 445.264 46.3827V33.6976C445.264 31.7374 444.984 30.2813 444.423 29.3292C443.863 28.3771 442.295 27.8451 439.719 27.7331C439.719 27.117 439.747 26.585 439.803 26.1369C439.859 25.6329 440.027 25.1288 440.307 24.6248C442.043 24.5128 443.919 24.1768 445.936 23.6167C448.008 23.0567 449.688 22.4406 450.976 21.7685C451.48 21.9366 451.9 22.3006 452.236 22.8606C452.628 23.3647 452.824 24.2328 452.824 25.4649V44.5346C452.824 48.3429 453.328 51.2551 454.336 53.2713C455.344 55.2315 457.165 56.2116 459.797 56.2116C462.541 56.2116 464.865 55.0355 466.769 52.6833C468.674 50.3311 469.626 46.7187 469.626 41.8463V33.2776C469.626 31.3174 469.262 29.8613 468.534 28.9092C467.806 27.9011 466.069 27.369 463.325 27.313C463.325 26.697 463.353 26.1649 463.409 25.7169C463.465 25.2128 463.633 24.7088 463.913 24.2048C466.097 24.0927 468.226 23.8127 470.298 23.3647C472.426 22.9166 474.106 22.3846 475.338 21.7685C475.842 21.9366 476.262 22.3006 476.598 22.8606C476.99 23.3647 477.186 24.2328 477.186 25.4649V49.827L470.634 52.9353C470.354 53.7194 469.962 54.4474 469.458 55.1195C468.954 55.7915 468.394 56.4356 467.778 57.0517C466.321 58.5078 464.781 59.5999 463.157 60.3279C461.533 61 459.573 61.336 457.277 61.336ZM472.314 61.7561C471.754 61.476 471.25 61.084 470.802 60.58C470.41 60.0759 470.214 58.8438 470.214 56.8836C470.214 56.2676 470.242 55.3995 470.298 54.2794C470.41 53.1593 470.662 51.5912 471.054 49.575H477.186C477.186 50.9191 477.298 52.0112 477.522 52.8513C477.746 53.6914 478.222 54.3074 478.951 54.6994C479.679 55.0915 480.827 55.2875 482.395 55.2875C482.395 55.8475 482.367 56.4916 482.311 57.2197C482.255 57.9477 482.115 58.5918 481.891 59.1518C480.491 59.2638 478.867 59.5439 477.018 59.9919C475.17 60.44 473.602 61.028 472.314 61.7561ZM506.963 61.7561C502.987 61.7561 499.682 60.86 497.05 59.0678C494.418 57.2757 492.43 54.8675 491.086 51.8432C489.798 48.7629 489.153 45.4026 489.153 41.7623C489.153 38.178 489.854 34.8737 491.254 31.8494C492.654 28.8252 494.642 26.389 497.218 24.5408C499.85 22.6926 502.959 21.7685 506.543 21.7685C510.183 21.7685 513.096 22.5526 515.28 24.1208C517.52 25.6889 519.172 27.7891 520.236 30.4213C521.356 33.0535 522.028 35.9658 522.252 39.1581C522.028 40.2782 521.608 41.2303 520.992 42.0143C520.04 42.0143 518.612 42.0143 516.708 42.0143C514.804 42.0143 512.648 42.0423 510.239 42.0983C507.831 42.0983 505.367 42.1543 502.847 42.2664C500.326 42.3224 497.946 42.4064 495.706 42.5184V38.234H513.516C513.516 34.5377 512.844 31.5414 511.499 29.2452C510.155 26.949 508.251 25.8009 505.787 25.8009C504.443 25.8009 503.127 26.2209 501.839 27.061C500.55 27.8451 499.486 29.2732 498.646 31.3454C497.806 33.4176 497.386 36.3018 497.386 39.9982C497.386 42.7424 497.722 45.4306 498.394 48.0629C499.122 50.6391 500.354 52.7953 502.091 54.5314C503.883 56.2116 506.403 57.0517 509.651 57.0517C511.499 57.0517 513.32 56.6596 515.112 55.8755C516.904 55.0355 518.5 53.8034 519.9 52.1792C520.348 52.4592 520.768 52.8513 521.16 53.3553C521.552 53.8594 521.804 54.3354 521.916 54.7835C520.012 57.3037 517.8 59.0958 515.28 60.1599C512.816 61.224 510.043 61.7561 506.963 61.7561Z" fill="black"/>
<path d="M189.446 81.8338C188.214 81.8338 186.954 81.5538 185.666 80.9938C184.321 80.4897 183.089 79.7617 181.969 78.8096C181.913 77.9135 181.941 77.0454 182.053 76.2053C182.165 75.3653 182.333 74.5532 182.557 73.7691C183.845 74.2172 185.302 74.5532 186.926 74.7772C188.494 75.0012 190.146 75.1132 191.882 75.1132C192.834 75.1132 193.646 74.9452 194.318 74.6092C195.046 74.2732 195.69 73.4891 196.251 72.257C196.811 71.0809 197.371 69.2047 197.931 66.6285C198.491 64.0523 199.107 60.524 199.779 56.0436C200.395 51.8992 200.983 47.5028 201.543 42.8544C202.103 38.206 202.859 32.9695 203.811 27.145C202.859 27.033 201.851 26.921 200.787 26.809C199.779 26.697 198.799 26.641 197.847 26.641C197.847 26.0249 197.931 25.4369 198.099 24.8768C198.267 24.3168 198.491 23.8127 198.771 23.3647H204.399C205.463 17.7642 207.059 13.3398 209.188 10.0915C211.372 6.84323 213.892 4.51903 216.748 3.11891C219.605 1.71878 222.545 1.01872 225.569 1.01872C228.817 1.01872 231.506 1.29874 233.634 1.85879C235.818 2.36284 237.722 3.1469 239.346 4.211C238.842 5.55512 238.45 6.87124 238.17 8.15935C237.946 9.44746 237.778 10.7636 237.666 12.1077C237.106 12.4437 236.378 12.6957 235.482 12.8638C234.642 12.9758 233.746 13.0598 232.794 13.1158C231.898 13.1158 231.086 13.0318 230.358 12.8638C230.246 10.0075 229.685 7.90733 228.677 6.56321C227.725 5.21909 226.241 4.54703 224.225 4.54703C222.209 4.54703 220.557 5.07907 219.269 6.14317C218.036 7.15126 216.916 9.02742 215.908 11.7717C214.956 14.4599 213.892 18.3242 212.716 23.3647H217.084C220.165 23.3647 222.629 23.3087 224.477 23.1967C226.325 23.0847 227.781 22.9166 228.845 22.6926C229.909 22.4126 230.806 22.1046 231.534 21.7685C233.27 22.4966 234.306 23.7287 234.642 25.4649C235.034 27.201 234.754 29.7773 233.802 33.1936L229.181 49.407C228.397 52.1512 228.061 53.9154 228.173 54.6994C228.341 55.4835 228.817 55.8755 229.601 55.8755C230.162 55.8755 230.806 55.6795 231.534 55.2875C232.318 54.8955 233.13 54.2794 233.97 53.4393C234.418 53.7194 234.754 54.1114 234.978 54.6154C235.202 55.0635 235.37 55.5675 235.482 56.1276C233.858 57.9197 232.234 59.3199 230.61 60.3279C229.041 61.28 227.473 61.7561 225.905 61.7561C224.001 61.7561 222.601 61.252 221.705 60.2439C220.865 59.2358 220.417 57.8357 220.361 56.0436C220.305 54.1954 220.613 52.0672 221.285 49.659L224.729 37.5619C225.569 34.5937 226.045 32.3255 226.157 30.7573C226.269 29.1892 225.877 28.1251 224.981 27.5651C224.141 26.949 222.629 26.641 220.445 26.641C218.765 26.641 217.224 26.725 215.824 26.893C214.48 27.005 213.192 27.145 211.96 27.313C211.008 32.7455 210.196 37.5059 209.524 41.5943C208.908 45.6827 208.404 48.8469 208.012 51.0871C207.284 55.5675 206.331 59.6839 205.155 63.4362C203.979 67.1885 202.607 70.4368 201.039 73.1811C199.471 75.9253 197.707 78.0535 195.746 79.5656C193.842 81.0778 191.742 81.8338 189.446 81.8338ZM254.076 21.7685C254.973 22.0486 255.533 22.6366 255.757 23.5327C256.037 24.3728 256.037 25.5769 255.757 27.145C255.533 28.5451 255.085 30.1693 254.413 32.0174C253.796 33.8656 253.012 35.9378 252.06 38.234H252.228L253.656 35.1257C254.945 32.4935 256.177 30.1693 257.353 28.1531C258.585 26.1369 259.845 24.5688 261.133 23.4487C262.477 22.3286 263.989 21.7685 265.67 21.7685C267.238 21.7685 268.666 22.2726 269.954 23.2807C269.45 24.8488 269.03 26.473 268.694 28.1531C268.358 29.8333 268.106 31.4574 267.938 33.0255C267.434 33.3056 266.818 33.5016 266.09 33.6136C265.417 33.7256 264.661 33.7536 263.821 33.6976C263.933 31.7374 263.905 30.4493 263.737 29.8333C263.569 29.1612 263.289 28.8252 262.897 28.8252C262.281 28.8252 261.469 29.3852 260.461 30.5053C259.453 31.5694 258.249 33.4176 256.849 36.0498C255.953 37.786 254.861 40.2502 253.572 43.4425C252.34 46.5787 251.388 49.939 250.716 53.5233L249.288 61H241.559L246.264 36.5538C246.768 33.9216 247.02 32.0454 247.02 30.9254C247.076 29.8053 246.712 29.1052 245.928 28.8252C245.2 28.5451 243.94 28.4051 242.147 28.4051C242.147 27.8451 242.175 27.285 242.231 26.725C242.287 26.1649 242.455 25.6609 242.735 25.2128C243.632 25.1008 244.808 24.8768 246.264 24.5408C247.776 24.1488 249.26 23.7007 250.716 23.1967C252.172 22.6366 253.292 22.1606 254.076 21.7685ZM286.795 21.7685C288.867 21.7685 290.883 22.0486 292.843 22.6086C294.803 23.1127 296.4 23.7287 297.632 24.4568C296.68 27.313 296.148 30.3373 296.036 33.5296C295.476 33.8096 294.831 34.0056 294.103 34.1176C293.431 34.2296 292.703 34.2856 291.919 34.2856C291.919 30.9814 291.443 28.7412 290.491 27.5651C289.539 26.3329 288.111 25.7169 286.207 25.7169C284.583 25.7169 283.322 26.0529 282.426 26.725C281.586 27.341 281.054 28.1251 280.83 29.0772C280.55 30.3093 280.718 31.4574 281.334 32.5215C281.95 33.5296 282.818 34.5657 283.939 35.6298C285.059 36.6379 286.235 37.7019 287.467 38.822C288.755 39.9421 289.931 41.1743 290.995 42.5184C292.059 43.8065 292.843 45.2906 293.347 46.9708C293.907 48.6509 293.963 50.5551 293.515 52.6833C293.067 54.6994 292.255 56.3796 291.079 57.7237C289.959 59.0678 288.503 60.0759 286.711 60.748C284.975 61.42 282.986 61.7561 280.746 61.7561C278.17 61.7561 275.874 61.42 273.858 60.748C271.841 60.0199 270.245 59.2638 269.069 58.4798C269.573 56.6876 269.909 55.0355 270.077 53.5233C270.301 52.0112 270.441 50.6111 270.497 49.323C271.785 48.7069 273.13 48.4549 274.53 48.5669C274.418 51.3672 274.838 53.6354 275.79 55.3715C276.742 57.0517 278.562 57.8917 281.25 57.8917C282.93 57.8917 284.219 57.5837 285.115 56.9676C286.067 56.2956 286.655 55.4555 286.879 54.4474C287.159 53.0473 286.851 51.7312 285.955 50.4991C285.115 49.211 283.967 47.9228 282.51 46.6347C281.11 45.2906 279.71 43.8625 278.31 42.3504C276.966 40.7822 275.902 39.0461 275.118 37.1419C274.334 35.2377 274.194 33.0535 274.698 30.5893C275.034 28.6852 275.734 27.089 276.798 25.8009C277.862 24.5128 279.234 23.5327 280.914 22.8606C282.594 22.1326 284.555 21.7685 286.795 21.7685ZM311.843 61.7561C309.491 61.7561 307.67 61.168 306.382 59.9919C305.15 58.7598 304.422 56.8836 304.198 54.3634C304.03 51.8432 304.422 48.5669 305.374 44.5346L310.415 22.5246C311.031 19.9484 311.535 17.6802 311.927 15.72C312.319 13.7038 312.543 12.1077 312.599 10.9316C313.719 10.7636 314.895 10.5116 316.127 10.1755C317.415 9.78349 318.451 9.36345 319.235 8.91542C319.683 9.13943 319.991 9.53147 320.159 10.0915C320.327 10.6516 320.327 11.6317 320.159 13.0318C319.991 14.3759 319.571 16.4481 318.899 19.2483L313.103 43.9465C312.375 47.0268 312.011 49.491 312.011 51.3391C312.011 53.1873 312.291 54.5314 312.851 55.3715C313.411 56.1556 314.139 56.5476 315.035 56.5476C315.987 56.5476 317.023 56.2116 318.143 55.5395C319.319 54.8115 320.355 53.8874 321.252 52.7673C321.7 52.9913 322.092 53.3833 322.428 53.9434C322.764 54.4474 322.96 54.9515 323.016 55.4555C322.288 56.4636 321.308 57.4437 320.075 58.3958C318.899 59.3479 317.583 60.1599 316.127 60.832C314.727 61.448 313.299 61.7561 311.843 61.7561ZM310.079 27.229C309.014 27.117 307.866 27.005 306.634 26.893C305.402 26.725 304.226 26.641 303.106 26.641C303.106 26.0249 303.19 25.4369 303.358 24.8768C303.526 24.3168 303.75 23.8127 304.03 23.3647H310.751L310.079 27.229ZM316.463 27.313L317.135 23.3647H327.468C327.468 23.9247 327.412 24.5128 327.3 25.1288C327.244 25.6889 327.104 26.1929 326.88 26.641C324.416 26.641 322.344 26.725 320.664 26.893C318.983 27.005 317.583 27.145 316.463 27.313Z" fill="#25CDAB"/>
</svg>
