<svg width="629" height="128" viewBox="0 0 629 128" fill="none" xmlns="http://www.w3.org/2000/svg">
<path d="M27.5916 75.2875C24.8951 75.2875 22.3631 74.86 19.9954 74.0051C19.1405 74.9258 18.5157 75.7808 18.1211 76.57C17.7265 77.3592 17.5292 78.0498 17.5292 78.6417C17.5292 79.8255 17.8251 80.7133 18.417 81.3052C19.0747 81.8971 20.4229 82.2917 22.4617 82.489C24.5005 82.6863 27.6245 82.785 31.8336 82.785C38.476 82.785 43.1126 83.6071 45.7433 85.2513C48.374 86.8954 49.6894 89.7234 49.6894 93.7352C49.6894 95.9713 49.0646 98.2403 47.815 100.542C46.6312 102.91 44.9541 105.047 42.7838 106.954C40.6135 108.927 38.0157 110.506 34.9904 111.69C32.0309 112.939 28.7754 113.564 25.2239 113.564C19.1734 113.564 14.7998 112.413 12.1034 110.111C9.40692 107.875 8.05869 104.587 8.05869 100.246C8.05869 97.747 8.68348 95.5767 9.93306 93.7352C11.2484 91.9595 13.057 90.5784 15.3589 89.5919C13.5174 89 12.2678 88.1121 11.6101 86.9283C10.9525 85.6788 10.6236 84.1332 10.6236 82.2917C10.6236 80.4503 11.084 78.6417 12.0047 76.8659C12.9912 75.0245 14.2737 73.3474 15.8521 71.8347C14.0106 70.5194 12.498 68.8095 11.3142 66.7049C10.1961 64.6003 9.63711 62.1341 9.63711 59.3061C9.63711 56.2808 10.2948 53.5515 11.6101 51.1181C12.9255 48.6189 14.8985 46.6459 17.5292 45.199C20.2256 43.6864 23.514 42.93 27.3943 42.93C29.6304 42.93 31.702 43.226 33.6093 43.8179H49.788C50.0511 44.6729 50.2155 45.6594 50.2813 46.7774C50.4128 47.8297 50.4786 48.882 50.4786 49.9342C49.229 49.6054 47.6835 49.3095 45.842 49.0464C44.0663 48.7176 42.4221 48.4874 40.9094 48.3558C42.4879 50 43.6388 51.7757 44.3622 53.683C45.0857 55.5902 45.4474 57.2673 45.4474 58.7142C45.4474 61.7395 44.7568 64.5346 43.3757 67.0995C42.0604 69.5987 40.0545 71.6046 37.358 73.1172C34.7273 74.5641 31.4718 75.2875 27.5916 75.2875ZM28.7754 70.7496C30.9457 70.7496 32.7214 69.8617 34.1025 68.086C35.4836 66.2445 36.1742 63.6138 36.1742 60.1939C36.1742 56.7083 35.3192 53.7159 33.6093 51.2167C31.8993 48.6518 29.4988 47.3693 26.4078 47.3693C23.7771 47.3693 21.8369 48.4874 20.5874 50.7235C19.3378 52.8938 18.713 55.3272 18.713 58.0236C18.713 62.1012 19.6008 65.258 21.3766 67.4941C23.1523 69.6644 25.6186 70.7496 28.7754 70.7496ZM16.5427 98.1745C16.5427 101.529 17.3648 104.061 19.0089 105.771C20.7189 107.481 23.5798 108.336 27.5916 108.336C31.9322 108.336 35.3192 107.25 37.7526 105.08C40.2518 102.91 41.5013 100.411 41.5013 97.5826C41.5013 95.8727 41.0739 94.5244 40.2189 93.5379C39.4297 92.5514 37.8513 91.828 35.4836 91.3676C33.1818 90.9073 29.7619 90.6771 25.2239 90.6771C23.1852 90.6771 21.4094 90.6113 19.8968 90.4798C18.6472 91.532 17.7594 92.683 17.2332 93.9325C16.7729 95.1821 16.5427 96.5961 16.5427 98.1745ZM80.6403 89.8879C76.1681 89.8879 72.255 88.9342 68.9009 87.027C65.5467 85.054 62.9489 82.3246 61.1074 78.839C59.266 75.2875 58.3452 71.1442 58.3452 66.4089C58.3452 61.9368 59.2988 57.925 61.2061 54.3735C63.1133 50.8221 65.744 48.027 69.0982 45.9882C72.4523 43.9494 76.2997 42.93 80.6403 42.93C85.3098 42.93 89.2887 43.9165 92.5771 45.8896C95.9312 47.8626 98.4961 50.6248 100.272 54.1762C102.048 57.6619 102.935 61.7395 102.935 66.4089C102.935 70.8811 101.982 74.8929 100.075 78.4444C98.2331 81.9958 95.6352 84.7909 92.2811 86.8297C88.9928 88.8685 85.1125 89.8879 80.6403 89.8879ZM81.4295 85.1526C85.3756 85.1526 88.3022 83.5413 90.2094 80.3187C92.1167 77.0304 93.0703 72.7884 93.0703 67.5928C93.0703 63.5152 92.4455 59.9966 91.196 57.0371C90.0121 54.0118 88.4008 51.71 86.3621 50.1316C84.3233 48.4874 82.0872 47.6653 79.6538 47.6653C75.8393 47.6653 72.9784 49.2108 71.0712 52.3019C69.2297 55.3929 68.3089 59.4047 68.3089 64.3373C68.3089 70.9798 69.4928 76.1096 71.8604 79.7268C74.228 83.344 77.4177 85.1526 81.4295 85.1526ZM133.145 89.8879C128.673 89.8879 124.76 88.9342 121.405 87.027C118.051 85.054 115.454 82.3246 113.612 78.839C111.771 75.2875 110.85 71.1442 110.85 66.4089C110.85 61.9368 111.803 57.925 113.711 54.3735C115.618 50.8221 118.249 48.027 121.603 45.9882C124.957 43.9494 128.804 42.93 133.145 42.93C137.814 42.93 141.793 43.9165 145.082 45.8896C148.436 47.8626 151.001 50.6248 152.776 54.1762C154.552 57.6619 155.44 61.7395 155.44 66.4089C155.44 70.8811 154.486 74.8929 152.579 78.4444C150.738 81.9958 148.14 84.7909 144.786 86.8297C141.497 88.8685 137.617 89.8879 133.145 89.8879ZM133.934 85.1526C137.88 85.1526 140.807 83.5413 142.714 80.3187C144.621 77.0304 145.575 72.7884 145.575 67.5928C145.575 63.5152 144.95 59.9966 143.701 57.0371C142.517 54.0118 140.905 51.71 138.867 50.1316C136.828 48.4874 134.592 47.6653 132.158 47.6653C128.344 47.6653 125.483 49.2108 123.576 52.3019C121.734 55.3929 120.814 59.4047 120.814 64.3373C120.814 70.9798 121.997 76.1096 124.365 79.7268C126.733 83.344 129.922 85.1526 133.934 85.1526ZM204.985 75.5835C204.985 77.8853 205.314 79.5953 205.972 80.7133C206.695 81.7656 208.405 82.2917 211.101 82.2917C211.101 82.9494 211.069 83.7057 211.003 84.5607C210.937 85.3499 210.773 86.1062 210.51 86.8297C208.865 86.8954 206.958 87.2243 204.788 87.8162C202.618 88.3423 200.776 89.0329 199.263 89.8879C198.606 89.559 198.014 89.0987 197.488 88.5067C197.027 87.8491 196.797 86.4022 196.797 84.1661C196.797 83.1796 196.863 82.2917 196.994 81.5025C197.126 80.7133 197.323 79.6939 197.586 78.4444C197.126 79.4966 196.698 80.3516 196.304 81.0093C195.909 81.667 195.58 82.1931 195.317 82.5877C194.725 83.5742 193.772 84.6265 192.456 85.7445C191.207 86.8626 189.661 87.8491 187.82 88.704C186.044 89.4933 184.038 89.8879 181.802 89.8879C176.015 89.8879 171.477 88.145 168.188 84.6594C164.966 81.1079 163.354 75.5506 163.354 67.9874C163.354 63.3837 164.374 59.2074 166.413 55.4587C168.451 51.6442 171.312 48.6189 174.995 46.3828C178.678 44.081 182.986 42.93 187.919 42.93C189.497 42.93 190.911 43.0616 192.161 43.3246C193.41 43.5219 194.725 43.8508 196.107 44.3112V32.2757C196.107 30.6973 195.942 29.4149 195.613 28.4284C195.35 27.3761 194.693 26.5869 193.64 26.0607C192.588 25.5346 190.944 25.2715 188.708 25.2715C188.708 23.7589 189.004 22.5422 189.596 21.6214C190.582 21.6214 191.963 21.457 193.739 21.1282C195.515 20.7994 197.257 20.3719 198.967 19.8457C200.743 19.3196 202.026 18.7935 202.815 18.2673C203.407 18.4646 203.9 18.8592 204.295 19.4511C204.755 20.043 204.985 20.9638 204.985 22.2134V75.5835ZM173.121 66.7049C173.121 70.914 173.746 74.2681 174.995 76.7673C176.245 79.2007 177.725 80.9764 179.435 82.0944C181.144 83.1467 182.723 83.6729 184.17 83.6729C186.143 83.6729 188.017 83.0809 189.793 81.8971C191.634 80.6476 193.147 78.6417 194.331 75.8794C195.515 73.1172 196.107 69.4342 196.107 64.8305V50.9208C194.989 49.9343 193.739 49.1122 192.358 48.4545C190.977 47.7968 189.333 47.468 187.425 47.468C186.044 47.468 184.532 47.7639 182.887 48.3558C181.309 48.882 179.763 49.8356 178.251 51.2167C176.738 52.5978 175.489 54.538 174.502 57.0371C173.581 59.5363 173.121 62.7589 173.121 66.7049ZM411.42 89.296C411.42 88.6383 411.453 87.9477 411.518 87.2243C411.584 86.4351 411.716 85.7116 411.913 85.054C414.544 85.054 416.319 84.4621 417.24 83.2782C418.227 82.0287 418.72 79.7597 418.72 76.4713V56.9385C418.72 55.36 418.556 54.0776 418.227 53.0911C417.964 52.0388 417.306 51.2496 416.254 50.7235C415.201 50.1973 413.557 49.9342 411.321 49.9342C411.321 48.4216 411.617 47.2049 412.209 46.2842C413.196 46.2842 414.577 46.1197 416.352 45.7909C418.194 45.4621 419.97 45.0346 421.679 44.5085C423.389 43.9823 424.639 43.4562 425.428 42.93C426.02 43.1273 426.513 43.5219 426.908 44.1138C427.368 44.7058 427.599 45.6265 427.599 46.8761V76.4713C427.599 79.7597 428.026 82.0287 428.881 83.2782C429.802 84.4621 431.314 85.054 433.419 85.054C433.616 85.7116 433.748 86.468 433.814 87.3229C433.879 88.1779 433.912 88.8356 433.912 89.296C432.202 89.1644 430.394 89.0658 428.486 89C426.579 89 424.672 89 422.765 89C420.923 89 418.983 89 416.944 89C414.905 89.0658 413.064 89.1644 411.42 89.296ZM422.37 31.7825C420.726 31.7825 419.345 31.2235 418.227 30.1054C417.109 28.9874 416.55 27.6392 416.55 26.0607C416.55 24.285 417.142 22.8381 418.325 21.7201C419.509 20.6021 420.857 20.043 422.37 20.043C424.146 20.043 425.56 20.6021 426.612 21.7201C427.73 22.8381 428.289 24.285 428.289 26.0607C428.289 27.5734 427.697 28.9216 426.513 30.1054C425.395 31.2235 424.014 31.7825 422.37 31.7825ZM472.463 46.3828C472.397 47.9612 472.332 49.6383 472.266 51.414C472.266 53.1897 472.397 54.9326 472.66 56.6425C471.411 57.4317 469.767 57.8263 467.728 57.8263C467.596 55.9848 467.037 54.242 466.051 52.5978C465.13 50.9536 463.88 49.6054 462.302 48.5531C460.724 47.5009 458.849 46.9747 456.679 46.9747C454.64 46.9747 452.996 47.468 451.746 48.4545C450.563 49.441 449.971 50.7563 449.971 52.4005C449.971 53.5186 450.201 54.5051 450.661 55.36C451.187 56.215 452.273 57.1358 453.917 58.1223C455.627 59.043 458.224 60.1939 461.71 61.5751C465.262 62.8904 468.057 64.2057 470.095 65.5211C472.134 66.8364 473.581 68.3162 474.436 69.9604C475.291 71.6046 475.719 73.6105 475.719 75.9781C475.719 78.7403 474.929 81.1737 473.351 83.2782C471.773 85.3828 469.602 87.027 466.84 88.2108C464.144 89.3288 461.085 89.8879 457.665 89.8879C453.719 89.8879 450.563 89.5919 448.195 89C445.893 88.3423 443.624 87.4216 441.388 86.2378C441.52 85.1855 441.585 83.903 441.585 82.3904C441.651 80.8777 441.684 79.3651 441.684 77.8525C441.684 76.3398 441.618 75.0573 441.487 74.0051C442.013 73.6105 442.736 73.3474 443.657 73.2159C444.644 73.0186 445.63 72.9199 446.617 72.9199C447.143 77.0632 448.425 80.1543 450.464 82.1931C452.503 84.2319 455.232 85.2513 458.652 85.2513C461.348 85.2513 463.42 84.6594 464.867 83.4756C466.38 82.2917 467.136 80.7791 467.136 78.9376C467.136 77.7538 466.84 76.7344 466.248 75.8794C465.722 75.0245 464.703 74.1695 463.19 73.3145C461.677 72.4595 459.441 71.4401 456.482 70.2563C452.93 68.8095 450.069 67.4612 447.899 66.2116C445.794 64.9621 444.249 63.4823 443.262 61.7724C442.342 60.0624 441.881 57.8921 441.881 55.2614C441.881 53.1568 442.407 51.3482 443.46 49.8356C444.512 48.2572 445.86 46.9747 447.504 45.9882C449.214 44.9359 451.023 44.1796 452.93 43.7192C454.837 43.1931 456.613 42.93 458.257 42.93C461.217 42.93 463.815 43.226 466.051 43.8179C468.287 44.4098 470.424 45.2648 472.463 46.3828ZM514.659 46.3828C514.594 47.9612 514.528 49.6383 514.462 51.414C514.462 53.1897 514.594 54.9326 514.857 56.6425C513.607 57.4317 511.963 57.8263 509.924 57.8263C509.793 55.9848 509.234 54.242 508.247 52.5978C507.326 50.9536 506.077 49.6054 504.498 48.5531C502.92 47.5009 501.046 46.9747 498.875 46.9747C496.837 46.9747 495.192 47.468 493.943 48.4545C492.759 49.441 492.167 50.7563 492.167 52.4005C492.167 53.5186 492.397 54.5051 492.858 55.36C493.384 56.215 494.469 57.1358 496.113 58.1223C497.823 59.043 500.421 60.1939 503.907 61.5751C507.458 62.8904 510.253 64.2057 512.292 65.5211C514.331 66.8364 515.778 68.3162 516.633 69.9604C517.487 71.6046 517.915 73.6105 517.915 75.9781C517.915 78.7403 517.126 81.1737 515.547 83.2782C513.969 85.3828 511.799 87.027 509.036 88.2108C506.34 89.3288 503.282 89.8879 499.862 89.8879C495.916 89.8879 492.759 89.5919 490.391 89C488.09 88.3423 485.821 87.4216 483.584 86.2378C483.716 85.1855 483.782 83.903 483.782 82.3904C483.848 80.8777 483.88 79.3651 483.88 77.8525C483.88 76.3398 483.815 75.0573 483.683 74.0051C484.209 73.6105 484.933 73.3474 485.853 73.2159C486.84 73.0186 487.826 72.9199 488.813 72.9199C489.339 77.0632 490.622 80.1543 492.66 82.1931C494.699 84.2319 497.428 85.2513 500.848 85.2513C503.545 85.2513 505.616 84.6594 507.063 83.4756C508.576 82.2917 509.332 80.7791 509.332 78.9376C509.332 77.7538 509.036 76.7344 508.444 75.8794C507.918 75.0245 506.899 74.1695 505.386 73.3145C503.874 72.4595 501.638 71.4401 498.678 70.2563C495.127 68.8095 492.266 67.4612 490.095 66.2116C487.991 64.9621 486.445 63.4823 485.459 61.7724C484.538 60.0624 484.078 57.8921 484.078 55.2614C484.078 53.1568 484.604 51.3482 485.656 49.8356C486.708 48.2572 488.057 46.9747 489.701 45.9882C491.411 44.9359 493.219 44.1796 495.127 43.7192C497.034 43.1931 498.81 42.93 500.454 42.93C503.413 42.93 506.011 43.226 508.247 43.8179C510.483 44.4098 512.621 45.2648 514.659 46.3828ZM544.031 89.3946C539.625 89.3946 536.172 88.1121 533.673 85.5472C531.174 82.9823 529.924 78.4115 529.924 71.8347V56.9385C529.924 54.6366 529.595 52.9267 528.938 51.8086C528.28 50.6248 526.439 50 523.413 49.9342C523.413 49.2108 523.446 48.586 523.512 48.0599C523.643 47.468 523.841 46.8761 524.104 46.2842C526.143 46.1526 528.346 45.758 530.713 45.1004C533.147 44.4427 535.12 43.7192 536.632 42.93C537.224 43.1273 537.718 43.5548 538.112 44.2125C538.573 44.8044 538.803 45.8238 538.803 47.2707V69.6644C538.803 74.0708 539.395 77.4578 540.579 79.8255C541.828 82.1931 543.966 83.3769 546.991 83.3769C550.279 83.3769 553.009 81.9958 555.179 79.2336C557.415 76.4713 558.533 72.2293 558.533 66.5076V56.4452C558.533 54.1434 558.105 52.4334 557.251 51.3154C556.461 50.1316 554.423 49.5068 551.134 49.441C551.134 48.7176 551.167 48.0928 551.233 47.5666C551.299 46.9747 551.496 46.3828 551.825 45.7909C554.39 45.6594 556.889 45.3305 559.322 44.8044C561.821 44.2125 563.794 43.5877 565.241 42.93C565.833 43.1273 566.326 43.5548 566.721 44.2125C567.181 44.8044 567.412 45.8238 567.412 47.2707V75.5835C567.412 77.8853 567.74 79.5953 568.398 80.7133C569.121 81.7656 570.831 82.2917 573.528 82.2917C573.528 82.9494 573.495 83.7057 573.429 84.5607C573.363 85.3499 573.199 86.1062 572.936 86.8297C571.292 86.8954 569.385 87.2243 567.214 87.8162C565.044 88.3423 563.202 89.0329 561.69 89.8879C561.032 89.559 560.44 89.0987 559.914 88.5067C559.454 87.8491 559.224 86.4022 559.224 84.1661C559.224 83.7057 559.224 83.1467 559.224 82.489C559.289 81.8314 559.388 81.0093 559.519 80.0228C559.125 80.812 558.665 81.5683 558.138 82.2917C557.612 83.0152 557.02 83.7057 556.363 84.3634C554.653 86.0734 552.844 87.3558 550.937 88.2108C549.03 89 546.728 89.3946 544.031 89.3946ZM602.379 89.8879C597.709 89.8879 593.829 88.8356 590.738 86.731C587.647 84.6265 585.312 81.7985 583.734 78.2471C582.221 74.6299 581.465 70.6838 581.465 66.4089C581.465 62.1998 582.287 58.3196 583.931 54.7681C585.575 51.2167 587.91 48.3558 590.935 46.1855C594.026 44.0152 597.676 42.93 601.885 42.93C606.16 42.93 609.58 43.8508 612.145 45.6923C614.776 47.5337 616.716 50 617.965 53.0911C619.281 56.1821 620.07 59.602 620.333 63.3508C620.07 64.6661 619.577 65.7842 618.853 66.7049C617.472 66.7049 615.236 66.7049 612.145 66.7049C609.12 66.7049 605.733 66.7378 601.984 66.8036C598.235 66.8693 594.651 67.0009 591.231 67.1982C591.428 70.0919 591.987 72.8541 592.908 75.4848C593.829 78.1155 595.309 80.253 597.347 81.8971C599.386 83.5413 602.116 84.3634 605.535 84.3634C607.706 84.3634 609.843 83.8702 611.948 82.8836C614.052 81.8971 615.927 80.4831 617.571 78.6417C618.097 78.9047 618.59 79.3651 619.051 80.0228C619.577 80.6147 619.873 81.1737 619.938 81.6998C617.702 84.6594 615.105 86.7639 612.145 88.0135C609.251 89.2631 605.996 89.8879 602.379 89.8879ZM600.997 47.6653C599.485 47.6653 598.005 48.0928 596.558 48.9477C595.111 49.8027 593.895 51.2825 592.908 53.387C591.922 55.4916 591.33 58.4511 591.132 62.2656H610.073C610.073 57.925 609.284 54.4064 607.706 51.71C606.127 49.0135 603.891 47.6653 600.997 47.6653Z" fill="white"/>
<path d="M229.514 113.465C226.423 113.465 223.497 112.282 220.735 109.914C220.669 108.862 220.702 107.809 220.833 106.757C220.965 105.771 221.162 104.85 221.425 103.995C222.938 104.455 224.648 104.817 226.555 105.08C228.396 105.409 230.337 105.573 232.375 105.573C233.493 105.573 234.447 105.376 235.236 104.981C236.091 104.587 236.848 103.666 237.505 102.219C238.163 100.838 238.821 98.6349 239.478 95.6096C240.136 92.5843 240.859 88.441 241.649 83.1796C242.372 78.3128 243.063 73.1501 243.72 67.6914C244.444 62.2327 245.332 56.0835 246.384 49.2437C245.266 49.1122 244.082 48.9806 242.832 48.8491C241.649 48.7176 240.498 48.6518 239.38 48.6518C239.38 47.1391 239.741 45.8567 240.465 44.8044H247.074C248.324 38.2277 250.198 33.0321 252.697 29.2176C255.262 25.4031 258.222 22.6737 261.576 21.0295C264.93 19.3854 268.383 18.5633 271.934 18.5633C275.749 18.5633 278.906 18.8921 281.405 19.5498C283.97 20.1417 286.206 21.0624 288.113 22.312C287.521 23.8904 287.061 25.4359 286.732 26.9486C286.469 28.4612 286.272 30.0068 286.14 31.5852C285.154 32.1113 283.805 32.473 282.095 32.6703C280.385 32.8019 278.873 32.7361 277.557 32.473C277.426 29.1189 276.768 26.6526 275.584 25.0742C274.466 23.4958 272.724 22.7066 270.356 22.7066C267.988 22.7066 266.048 23.3314 264.536 24.581C263.089 25.7648 261.773 27.968 260.59 31.1906C259.471 34.3474 258.222 38.8853 256.841 44.8044H261.971C265.588 44.8044 268.482 44.7386 270.652 44.6071C272.822 44.4756 274.532 44.2783 275.782 44.0152C277.097 43.6864 278.149 43.3246 278.939 42.93C280.977 43.785 282.194 45.2319 282.589 47.2707C283.049 49.2437 282.72 52.269 281.602 56.3466L276.176 75.3862C275.256 78.6088 274.861 80.6804 274.993 81.6012C275.19 82.5219 275.749 82.9823 276.67 82.9823C277.327 82.9823 278.084 82.7521 278.939 82.2917C279.859 81.8314 280.813 81.1079 281.799 80.1214C282.786 80.7791 283.378 81.8314 283.575 83.2782C281.668 85.317 279.761 86.9283 277.853 88.1121C276.012 89.296 274.17 89.8879 272.329 89.8879C269.041 89.8879 267.002 88.5725 266.213 85.9418C265.489 83.3111 265.719 79.8912 266.903 75.6821L270.948 61.4764C271.934 57.9907 272.493 55.3272 272.625 53.4857C272.756 51.6442 272.296 50.3946 271.244 49.7369C270.257 49.0135 268.482 48.6518 265.917 48.6518C263.944 48.6518 262.135 48.7504 260.491 48.9477C258.912 49.0793 257.4 49.2437 255.953 49.441C254.835 55.8204 253.881 61.4106 253.092 66.2116C252.369 71.0127 251.777 74.7285 251.316 77.3592C250.133 84.3963 248.521 90.6113 246.482 96.0042C244.444 101.463 241.977 105.738 239.084 108.829C236.256 111.92 233.066 113.465 229.514 113.465ZM305.411 42.93C307.384 43.5877 308.042 45.6923 307.384 49.2437C306.792 52.5321 305.345 56.8727 303.043 62.2656H303.241L304.918 58.6155C307.154 53.9461 309.324 50.1644 311.429 47.2707C313.599 44.3769 316.131 42.93 319.025 42.93C320.932 42.93 322.609 43.5219 324.056 44.7058C323.464 46.5472 322.971 48.4545 322.576 50.4275C322.182 52.4005 321.886 54.3078 321.688 56.1493C320.439 56.7412 318.827 57.0042 316.854 56.9385C316.986 54.6366 316.953 53.124 316.756 52.4005C316.559 51.6113 316.23 51.2167 315.769 51.2167C315.112 51.2167 314.158 51.8744 312.908 53.1897C311.725 54.4393 310.311 56.6096 308.666 59.7007C307.614 61.7395 306.332 64.6332 304.819 68.382C303.372 72.0649 302.254 76.011 301.465 80.2201L299.788 89H290.712L296.236 60.2926C296.828 57.2015 297.124 54.9983 297.124 53.683C297.19 52.3676 296.763 51.5455 295.842 51.2167C294.987 50.8879 293.507 50.7235 291.403 50.7235C291.403 50 291.435 49.3095 291.501 48.6518C291.633 47.9941 291.83 47.4351 292.093 46.9747C293.145 46.8432 294.526 46.5801 296.236 46.1855C298.012 45.7251 299.755 45.199 301.465 44.6071C303.175 43.9494 304.49 43.3904 305.411 42.93ZM343.832 42.93C346.266 42.93 348.633 43.226 350.935 43.8179C353.237 44.4098 355.111 45.1661 356.558 46.0869C355.44 49.441 354.816 52.9924 354.684 56.7412C354.026 57.07 353.27 57.3002 352.415 57.4317C351.626 57.5633 350.771 57.629 349.85 57.629C349.85 53.7488 349.291 51.1181 348.173 49.7369C347.055 48.2901 345.378 47.5666 343.142 47.5666C341.235 47.5666 339.755 47.9612 338.703 48.7504C337.716 49.4739 337.091 50.3946 336.828 51.5127C336.434 53.2226 336.762 54.801 337.815 56.2479C338.933 57.6948 340.347 59.1746 342.057 60.6872C343.832 62.1341 345.575 63.7125 347.285 65.4224C348.995 67.1324 350.31 69.1054 351.231 71.3415C352.152 73.5776 352.316 76.2083 351.724 79.2336C351.001 82.8508 349.324 85.5472 346.693 87.3229C344.063 89.0329 340.741 89.8879 336.73 89.8879C333.704 89.8879 331.008 89.4933 328.64 88.704C326.273 87.8491 324.398 86.9612 323.017 86.0405C323.609 83.9359 324.004 81.9958 324.201 80.2201C324.464 78.4444 324.628 76.8002 324.694 75.2875C326.207 74.5641 327.785 74.2681 329.429 74.3997C329.298 77.6223 329.791 80.253 330.909 82.2917C332.027 84.3305 334.165 85.3499 337.321 85.3499C339.294 85.3499 340.807 84.9882 341.859 84.2648C342.977 83.4756 343.668 82.489 343.931 81.3052C344.26 79.661 343.898 78.1155 342.846 76.6686C341.859 75.156 340.511 73.6433 338.801 72.1307C337.157 70.5523 335.513 68.8752 333.869 67.0995C332.29 65.258 331.041 63.2192 330.12 60.9831C329.199 58.7471 329.035 56.1821 329.627 53.2884C330.284 50 331.83 47.468 334.263 45.6923C336.697 43.8508 339.886 42.93 343.832 42.93ZM373.247 89.8879C369.103 89.8879 366.374 88.3094 365.058 85.1526C363.809 81.93 364.006 76.7673 365.65 69.6644L370.287 49.2437C369.103 49.1122 367.886 48.9806 366.637 48.8491C365.387 48.7176 364.171 48.6518 362.987 48.6518C362.987 47.1391 363.349 45.8567 364.072 44.8044H371.372L371.569 43.8179C372.293 40.7926 372.885 38.129 373.345 35.8272C373.806 33.4596 374.069 31.5852 374.134 30.2041C375.45 30.0068 376.831 29.7108 378.278 29.3162C379.79 28.8558 381.007 28.3626 381.928 27.8365C382.454 28.0995 382.816 28.5599 383.013 29.2176C383.21 29.8752 383.21 31.0262 383.013 32.6703C382.816 34.2488 382.322 36.6821 381.533 39.9705L380.448 44.8044H391.596C391.596 46.3828 391.365 47.6653 390.905 48.6518C388.209 48.6518 385.94 48.7176 384.098 48.8491C382.257 48.9806 380.678 49.145 379.363 49.3423L374.726 68.9739C373.477 74.3668 373.115 78.1813 373.641 80.4174C374.233 82.6535 375.351 83.7715 376.995 83.7715C378.113 83.7715 379.33 83.344 380.645 82.489C382.026 81.6341 383.243 80.5818 384.295 79.3322C385.413 79.9899 386.104 81.0422 386.367 82.489C385.052 84.199 383.177 85.8761 380.744 87.5202C378.376 89.0987 375.877 89.8879 373.247 89.8879Z" fill="#33CB9A"/>
</svg>
