<svg width="1051" height="140" viewBox="0 0 1051 140" fill="none" xmlns="http://www.w3.org/2000/svg">
<rect width="1051" height="140" fill="#0F1218"/>
<path d="M238.592 81.2875C235.895 81.2875 233.363 80.86 230.995 80.0051C230.14 80.9258 229.516 81.7808 229.121 82.57C228.726 83.3592 228.529 84.0498 228.529 84.6417C228.529 85.8255 228.825 86.7133 229.417 87.3052C230.075 87.8971 231.423 88.2917 233.462 88.489C235.501 88.6863 238.624 88.785 242.834 88.785C249.476 88.785 254.113 89.6071 256.743 91.2513C259.374 92.8954 260.689 95.7234 260.689 99.7352C260.689 101.971 260.065 104.24 258.815 106.542C257.631 108.91 255.954 111.047 253.784 112.954C251.613 114.927 249.016 116.506 245.99 117.69C243.031 118.939 239.775 119.564 236.224 119.564C230.173 119.564 225.8 118.413 223.103 116.111C220.407 113.875 219.059 110.587 219.059 106.246C219.059 103.747 219.683 101.577 220.933 99.7352C222.248 97.9595 224.057 96.5784 226.359 95.5919C224.517 95 223.268 94.1121 222.61 92.9283C221.952 91.6788 221.624 90.1332 221.624 88.2917C221.624 86.4503 222.084 84.6417 223.005 82.8659C223.991 81.0245 225.274 79.3474 226.852 77.8347C225.011 76.5194 223.498 74.8095 222.314 72.7049C221.196 70.6003 220.637 68.1341 220.637 65.3061C220.637 62.2808 221.295 59.5515 222.61 57.1181C223.925 54.6189 225.898 52.6459 228.529 51.199C231.226 49.6864 234.514 48.93 238.394 48.93C240.63 48.93 242.702 49.226 244.609 49.8179H260.788C261.051 50.6729 261.216 51.6594 261.281 52.7774C261.413 53.8297 261.479 54.882 261.479 55.9342C260.229 55.6054 258.683 55.3095 256.842 55.0464C255.066 54.7176 253.422 54.4874 251.909 54.3558C253.488 56 254.639 57.7757 255.362 59.683C256.086 61.5902 256.447 63.2673 256.447 64.7142C256.447 67.7395 255.757 70.5346 254.376 73.0995C253.06 75.5987 251.054 77.6046 248.358 79.1172C245.727 80.5641 242.472 81.2875 238.592 81.2875ZM239.775 76.7496C241.946 76.7496 243.721 75.8617 245.103 74.086C246.484 72.2445 247.174 69.6138 247.174 66.1939C247.174 62.7083 246.319 59.7159 244.609 57.2167C242.899 54.6518 240.499 53.3693 237.408 53.3693C234.777 53.3693 232.837 54.4874 231.587 56.7235C230.338 58.8938 229.713 61.3272 229.713 64.0236C229.713 68.1012 230.601 71.258 232.377 73.4941C234.152 75.6644 236.619 76.7496 239.775 76.7496ZM227.543 104.175C227.543 107.529 228.365 110.061 230.009 111.771C231.719 113.481 234.58 114.336 238.592 114.336C242.932 114.336 246.319 113.25 248.753 111.08C251.252 108.91 252.501 106.411 252.501 103.583C252.501 101.873 252.074 100.524 251.219 99.5379C250.43 98.5514 248.851 97.828 246.484 97.3676C244.182 96.9073 240.762 96.6771 236.224 96.6771C234.185 96.6771 232.409 96.6113 230.897 96.4798C229.647 97.532 228.759 98.683 228.233 99.9325C227.773 101.182 227.543 102.596 227.543 104.175ZM291.64 95.8879C287.168 95.8879 283.255 94.9342 279.901 93.027C276.547 91.054 273.949 88.3246 272.107 84.839C270.266 81.2875 269.345 77.1442 269.345 72.4089C269.345 67.9368 270.299 63.925 272.206 60.3735C274.113 56.8221 276.744 54.027 280.098 51.9882C283.452 49.9494 287.3 48.93 291.64 48.93C296.31 48.93 300.289 49.9165 303.577 51.8896C306.931 53.8626 309.496 56.6248 311.272 60.1762C313.048 63.6619 313.935 67.7395 313.935 72.4089C313.935 76.8811 312.982 80.8929 311.075 84.4444C309.233 87.9958 306.635 90.7909 303.281 92.8297C299.993 94.8685 296.112 95.8879 291.64 95.8879ZM292.43 91.1526C296.376 91.1526 299.302 89.5413 301.209 86.3187C303.117 83.0304 304.07 78.7884 304.07 73.5928C304.07 69.5152 303.446 65.9966 302.196 63.0371C301.012 60.0118 299.401 57.71 297.362 56.1316C295.323 54.4874 293.087 53.6653 290.654 53.6653C286.839 53.6653 283.978 55.2108 282.071 58.3019C280.23 61.3929 279.309 65.4047 279.309 70.3373C279.309 76.9798 280.493 82.1096 282.86 85.7268C285.228 89.344 288.418 91.1526 292.43 91.1526ZM344.145 95.8879C339.673 95.8879 335.76 94.9342 332.405 93.027C329.051 91.054 326.454 88.3246 324.612 84.839C322.771 81.2875 321.85 77.1442 321.85 72.4089C321.85 67.9368 322.803 63.925 324.711 60.3735C326.618 56.8221 329.249 54.027 332.603 51.9882C335.957 49.9494 339.804 48.93 344.145 48.93C348.814 48.93 352.793 49.9165 356.082 51.8896C359.436 53.8626 362.001 56.6248 363.776 60.1762C365.552 63.6619 366.44 67.7395 366.44 72.4089C366.44 76.8811 365.486 80.8929 363.579 84.4444C361.738 87.9958 359.14 90.7909 355.786 92.8297C352.497 94.8685 348.617 95.8879 344.145 95.8879ZM344.934 91.1526C348.88 91.1526 351.807 89.5413 353.714 86.3187C355.621 83.0304 356.575 78.7884 356.575 73.5928C356.575 69.5152 355.95 65.9966 354.701 63.0371C353.517 60.0118 351.905 57.71 349.867 56.1316C347.828 54.4874 345.592 53.6653 343.158 53.6653C339.344 53.6653 336.483 55.2108 334.576 58.3019C332.734 61.3929 331.814 65.4047 331.814 70.3373C331.814 76.9798 332.997 82.1096 335.365 85.7268C337.733 89.344 340.922 91.1526 344.934 91.1526ZM415.985 81.5835C415.985 83.8853 416.314 85.5953 416.972 86.7133C417.695 87.7656 419.405 88.2917 422.101 88.2917C422.101 88.9494 422.069 89.7057 422.003 90.5607C421.937 91.3499 421.773 92.1062 421.51 92.8297C419.865 92.8954 417.958 93.2243 415.788 93.8162C413.618 94.3423 411.776 95.0329 410.263 95.8879C409.606 95.559 409.014 95.0987 408.488 94.5067C408.027 93.8491 407.797 92.4022 407.797 90.1661C407.797 89.1796 407.863 88.2917 407.994 87.5025C408.126 86.7133 408.323 85.6939 408.586 84.4444C408.126 85.4966 407.698 86.3516 407.304 87.0093C406.909 87.667 406.58 88.1931 406.317 88.5877C405.725 89.5742 404.772 90.6265 403.456 91.7445C402.207 92.8626 400.661 93.8491 398.82 94.704C397.044 95.4933 395.038 95.8879 392.802 95.8879C387.015 95.8879 382.477 94.145 379.188 90.6594C375.966 87.1079 374.354 81.5506 374.354 73.9874C374.354 69.3837 375.374 65.2074 377.413 61.4587C379.451 57.6442 382.312 54.6189 385.995 52.3828C389.678 50.081 393.986 48.93 398.919 48.93C400.497 48.93 401.911 49.0616 403.161 49.3246C404.41 49.5219 405.725 49.8508 407.107 50.3112V38.2757C407.107 36.6973 406.942 35.4149 406.613 34.4284C406.35 33.3761 405.693 32.5869 404.64 32.0607C403.588 31.5346 401.944 31.2715 399.708 31.2715C399.708 29.7589 400.004 28.5422 400.596 27.6214C401.582 27.6214 402.963 27.457 404.739 27.1282C406.515 26.7994 408.257 26.3719 409.967 25.8457C411.743 25.3196 413.026 24.7935 413.815 24.2673C414.407 24.4646 414.9 24.8592 415.295 25.4511C415.755 26.043 415.985 26.9638 415.985 28.2134V81.5835ZM384.121 72.7049C384.121 76.914 384.746 80.2681 385.995 82.7673C387.245 85.2007 388.725 86.9764 390.435 88.0944C392.144 89.1467 393.723 89.6729 395.17 89.6729C397.143 89.6729 399.017 89.0809 400.793 87.8971C402.634 86.6476 404.147 84.6417 405.331 81.8794C406.515 79.1172 407.107 75.4342 407.107 70.8305V56.9208C405.989 55.9343 404.739 55.1122 403.358 54.4545C401.977 53.7968 400.333 53.468 398.425 53.468C397.044 53.468 395.532 53.7639 393.887 54.3558C392.309 54.882 390.763 55.8356 389.251 57.2167C387.738 58.5978 386.489 60.538 385.502 63.0371C384.581 65.5363 384.121 68.7589 384.121 72.7049ZM622.42 95.296C622.42 94.6383 622.453 93.9477 622.518 93.2243C622.584 92.4351 622.716 91.7116 622.913 91.054C625.544 91.054 627.319 90.4621 628.24 89.2782C629.227 88.0287 629.72 85.7597 629.72 82.4713V62.9385C629.72 61.36 629.556 60.0776 629.227 59.0911C628.964 58.0388 628.306 57.2496 627.254 56.7235C626.201 56.1973 624.557 55.9342 622.321 55.9342C622.321 54.4216 622.617 53.2049 623.209 52.2842C624.196 52.2842 625.577 52.1197 627.352 51.7909C629.194 51.4621 630.97 51.0346 632.679 50.5085C634.389 49.9823 635.639 49.4562 636.428 48.93C637.02 49.1273 637.513 49.5219 637.908 50.1138C638.368 50.7058 638.599 51.6265 638.599 52.8761V82.4713C638.599 85.7597 639.026 88.0287 639.881 89.2782C640.802 90.4621 642.314 91.054 644.419 91.054C644.616 91.7116 644.748 92.468 644.814 93.3229C644.879 94.1779 644.912 94.8356 644.912 95.296C643.202 95.1644 641.394 95.0658 639.486 95C637.579 95 635.672 95 633.765 95C631.923 95 629.983 95 627.944 95C625.905 95.0658 624.064 95.1644 622.42 95.296ZM633.37 37.7825C631.726 37.7825 630.345 37.2235 629.227 36.1054C628.109 34.9874 627.55 33.6392 627.55 32.0607C627.55 30.285 628.142 28.8381 629.325 27.7201C630.509 26.6021 631.857 26.043 633.37 26.043C635.146 26.043 636.56 26.6021 637.612 27.7201C638.73 28.8381 639.289 30.285 639.289 32.0607C639.289 33.5734 638.697 34.9216 637.513 36.1054C636.395 37.2235 635.014 37.7825 633.37 37.7825ZM683.463 52.3828C683.397 53.9612 683.332 55.6383 683.266 57.414C683.266 59.1897 683.397 60.9326 683.66 62.6425C682.411 63.4317 680.767 63.8263 678.728 63.8263C678.596 61.9848 678.037 60.242 677.051 58.5978C676.13 56.9536 674.88 55.6054 673.302 54.5531C671.724 53.5009 669.849 52.9747 667.679 52.9747C665.64 52.9747 663.996 53.468 662.746 54.4545C661.563 55.441 660.971 56.7563 660.971 58.4005C660.971 59.5186 661.201 60.5051 661.661 61.36C662.187 62.215 663.273 63.1358 664.917 64.1223C666.627 65.043 669.224 66.1939 672.71 67.5751C676.262 68.8904 679.057 70.2057 681.095 71.5211C683.134 72.8364 684.581 74.3162 685.436 75.9604C686.291 77.6046 686.719 79.6105 686.719 81.9781C686.719 84.7403 685.929 87.1737 684.351 89.2782C682.773 91.3828 680.602 93.027 677.84 94.2108C675.144 95.3288 672.085 95.8879 668.665 95.8879C664.719 95.8879 661.563 95.5919 659.195 95C656.893 94.3423 654.624 93.4216 652.388 92.2378C652.52 91.1855 652.585 89.903 652.585 88.3904C652.651 86.8777 652.684 85.3651 652.684 83.8525C652.684 82.3398 652.618 81.0573 652.487 80.0051C653.013 79.6105 653.736 79.3474 654.657 79.2159C655.644 79.0186 656.63 78.9199 657.617 78.9199C658.143 83.0632 659.425 86.1543 661.464 88.1931C663.503 90.2319 666.232 91.2513 669.652 91.2513C672.348 91.2513 674.42 90.6594 675.867 89.4756C677.38 88.2917 678.136 86.7791 678.136 84.9376C678.136 83.7538 677.84 82.7344 677.248 81.8794C676.722 81.0245 675.703 80.1695 674.19 79.3145C672.677 78.4595 670.441 77.4401 667.482 76.2563C663.93 74.8095 661.069 73.4612 658.899 72.2116C656.794 70.9621 655.249 69.4823 654.262 67.7724C653.342 66.0624 652.881 63.8921 652.881 61.2614C652.881 59.1568 653.407 57.3482 654.46 55.8356C655.512 54.2572 656.86 52.9747 658.504 51.9882C660.214 50.9359 662.023 50.1796 663.93 49.7192C665.837 49.1931 667.613 48.93 669.257 48.93C672.217 48.93 674.815 49.226 677.051 49.8179C679.287 50.4098 681.424 51.2648 683.463 52.3828ZM725.659 52.3828C725.594 53.9612 725.528 55.6383 725.462 57.414C725.462 59.1897 725.594 60.9326 725.857 62.6425C724.607 63.4317 722.963 63.8263 720.924 63.8263C720.793 61.9848 720.234 60.242 719.247 58.5978C718.326 56.9536 717.077 55.6054 715.498 54.5531C713.92 53.5009 712.046 52.9747 709.875 52.9747C707.837 52.9747 706.192 53.468 704.943 54.4545C703.759 55.441 703.167 56.7563 703.167 58.4005C703.167 59.5186 703.397 60.5051 703.858 61.36C704.384 62.215 705.469 63.1358 707.113 64.1223C708.823 65.043 711.421 66.1939 714.907 67.5751C718.458 68.8904 721.253 70.2057 723.292 71.5211C725.331 72.8364 726.778 74.3162 727.633 75.9604C728.487 77.6046 728.915 79.6105 728.915 81.9781C728.915 84.7403 728.126 87.1737 726.547 89.2782C724.969 91.3828 722.799 93.027 720.036 94.2108C717.34 95.3288 714.282 95.8879 710.862 95.8879C706.916 95.8879 703.759 95.5919 701.391 95C699.09 94.3423 696.821 93.4216 694.584 92.2378C694.716 91.1855 694.782 89.903 694.782 88.3904C694.848 86.8777 694.88 85.3651 694.88 83.8525C694.88 82.3398 694.815 81.0573 694.683 80.0051C695.209 79.6105 695.933 79.3474 696.853 79.2159C697.84 79.0186 698.826 78.9199 699.813 78.9199C700.339 83.0632 701.622 86.1543 703.66 88.1931C705.699 90.2319 708.428 91.2513 711.848 91.2513C714.545 91.2513 716.616 90.6594 718.063 89.4756C719.576 88.2917 720.332 86.7791 720.332 84.9376C720.332 83.7538 720.036 82.7344 719.444 81.8794C718.918 81.0245 717.899 80.1695 716.386 79.3145C714.874 78.4595 712.638 77.4401 709.678 76.2563C706.127 74.8095 703.266 73.4612 701.095 72.2116C698.991 70.9621 697.445 69.4823 696.459 67.7724C695.538 66.0624 695.078 63.8921 695.078 61.2614C695.078 59.1568 695.604 57.3482 696.656 55.8356C697.708 54.2572 699.057 52.9747 700.701 51.9882C702.411 50.9359 704.219 50.1796 706.127 49.7192C708.034 49.1931 709.81 48.93 711.454 48.93C714.413 48.93 717.011 49.226 719.247 49.8179C721.483 50.4098 723.621 51.2648 725.659 52.3828ZM755.031 95.3946C750.625 95.3946 747.172 94.1121 744.673 91.5472C742.174 88.9823 740.924 84.4115 740.924 77.8347V62.9385C740.924 60.6366 740.595 58.9267 739.938 57.8086C739.28 56.6248 737.439 56 734.413 55.9342C734.413 55.2108 734.446 54.586 734.512 54.0599C734.643 53.468 734.841 52.8761 735.104 52.2842C737.143 52.1526 739.346 51.758 741.713 51.1004C744.147 50.4427 746.12 49.7192 747.632 48.93C748.224 49.1273 748.718 49.5548 749.112 50.2125C749.573 50.8044 749.803 51.8238 749.803 53.2707V75.6644C749.803 80.0708 750.395 83.4578 751.579 85.8255C752.828 88.1931 754.966 89.3769 757.991 89.3769C761.279 89.3769 764.009 87.9958 766.179 85.2336C768.415 82.4713 769.533 78.2293 769.533 72.5076V62.4452C769.533 60.1434 769.105 58.4334 768.251 57.3154C767.461 56.1316 765.423 55.5068 762.134 55.441C762.134 54.7176 762.167 54.0928 762.233 53.5666C762.299 52.9747 762.496 52.3828 762.825 51.7909C765.39 51.6594 767.889 51.3305 770.322 50.8044C772.821 50.2125 774.794 49.5877 776.241 48.93C776.833 49.1273 777.326 49.5548 777.721 50.2125C778.181 50.8044 778.412 51.8238 778.412 53.2707V81.5835C778.412 83.8853 778.74 85.5953 779.398 86.7133C780.121 87.7656 781.831 88.2917 784.528 88.2917C784.528 88.9494 784.495 89.7057 784.429 90.5607C784.363 91.3499 784.199 92.1062 783.936 92.8297C782.292 92.8954 780.385 93.2243 778.214 93.8162C776.044 94.3423 774.202 95.0329 772.69 95.8879C772.032 95.559 771.44 95.0987 770.914 94.5067C770.454 93.8491 770.224 92.4022 770.224 90.1661C770.224 89.7057 770.224 89.1467 770.224 88.489C770.289 87.8314 770.388 87.0093 770.519 86.0228C770.125 86.812 769.665 87.5683 769.138 88.2917C768.612 89.0152 768.02 89.7057 767.363 90.3634C765.653 92.0734 763.844 93.3558 761.937 94.2108C760.03 95 757.728 95.3946 755.031 95.3946ZM813.379 95.8879C808.709 95.8879 804.829 94.8356 801.738 92.731C798.647 90.6265 796.312 87.7985 794.734 84.2471C793.221 80.6299 792.465 76.6838 792.465 72.4089C792.465 68.1998 793.287 64.3196 794.931 60.7681C796.575 57.2167 798.91 54.3558 801.935 52.1855C805.026 50.0152 808.676 48.93 812.885 48.93C817.16 48.93 820.58 49.8508 823.145 51.6923C825.776 53.5337 827.716 56 828.965 59.0911C830.281 62.1821 831.07 65.602 831.333 69.3508C831.07 70.6661 830.577 71.7842 829.853 72.7049C828.472 72.7049 826.236 72.7049 823.145 72.7049C820.12 72.7049 816.733 72.7378 812.984 72.8036C809.235 72.8693 805.651 73.0009 802.231 73.1982C802.428 76.0919 802.987 78.8541 803.908 81.4848C804.829 84.1155 806.309 86.253 808.347 87.8971C810.386 89.5413 813.116 90.3634 816.535 90.3634C818.706 90.3634 820.843 89.8702 822.948 88.8836C825.052 87.8971 826.927 86.4831 828.571 84.6417C829.097 84.9047 829.59 85.3651 830.051 86.0228C830.577 86.6147 830.873 87.1737 830.938 87.6998C828.702 90.6594 826.105 92.7639 823.145 94.0135C820.251 95.2631 816.996 95.8879 813.379 95.8879ZM811.997 53.6653C810.485 53.6653 809.005 54.0928 807.558 54.9477C806.111 55.8027 804.895 57.2825 803.908 59.387C802.922 61.4916 802.33 64.4511 802.132 68.2656H821.073C821.073 63.925 820.284 60.4064 818.706 57.71C817.127 55.0135 814.891 53.6653 811.997 53.6653Z" fill="white"/>
<path d="M440.514 119.465C437.423 119.465 434.497 118.282 431.735 115.914C431.669 114.862 431.702 113.809 431.833 112.757C431.965 111.771 432.162 110.85 432.425 109.995C433.938 110.455 435.648 110.817 437.555 111.08C439.396 111.409 441.337 111.573 443.375 111.573C444.493 111.573 445.447 111.376 446.236 110.981C447.091 110.587 447.848 109.666 448.505 108.219C449.163 106.838 449.821 104.635 450.478 101.61C451.136 98.5843 451.859 94.441 452.649 89.1796C453.372 84.3128 454.063 79.1501 454.72 73.6914C455.444 68.2327 456.332 62.0835 457.384 55.2437C456.266 55.1122 455.082 54.9806 453.832 54.8491C452.649 54.7176 451.498 54.6518 450.38 54.6518C450.38 53.1391 450.741 51.8567 451.465 50.8044H458.074C459.324 44.2277 461.198 39.0321 463.697 35.2176C466.262 31.4031 469.222 28.6737 472.576 27.0295C475.93 25.3854 479.383 24.5633 482.934 24.5633C486.749 24.5633 489.906 24.8921 492.405 25.5498C494.97 26.1417 497.206 27.0624 499.113 28.312C498.521 29.8904 498.061 31.4359 497.732 32.9486C497.469 34.4612 497.272 36.0068 497.14 37.5852C496.154 38.1113 494.805 38.473 493.095 38.6703C491.385 38.8019 489.873 38.7361 488.557 38.473C488.426 35.1189 487.768 32.6526 486.584 31.0742C485.466 29.4958 483.724 28.7066 481.356 28.7066C478.988 28.7066 477.048 29.3314 475.536 30.581C474.089 31.7648 472.773 33.968 471.59 37.1906C470.471 40.3474 469.222 44.8853 467.841 50.8044H472.971C476.588 50.8044 479.482 50.7386 481.652 50.6071C483.822 50.4756 485.532 50.2783 486.782 50.0152C488.097 49.6864 489.149 49.3246 489.939 48.93C491.977 49.785 493.194 51.2319 493.589 53.2707C494.049 55.2437 493.72 58.269 492.602 62.3466L487.176 81.3862C486.256 84.6088 485.861 86.6804 485.993 87.6012C486.19 88.5219 486.749 88.9823 487.67 88.9823C488.327 88.9823 489.084 88.7521 489.939 88.2917C490.859 87.8314 491.813 87.1079 492.799 86.1214C493.786 86.7791 494.378 87.8314 494.575 89.2782C492.668 91.317 490.761 92.9283 488.853 94.1121C487.012 95.296 485.17 95.8879 483.329 95.8879C480.041 95.8879 478.002 94.5725 477.213 91.9418C476.489 89.3111 476.719 85.8912 477.903 81.6821L481.948 67.4764C482.934 63.9907 483.493 61.3272 483.625 59.4857C483.756 57.6442 483.296 56.3946 482.244 55.7369C481.257 55.0135 479.482 54.6518 476.917 54.6518C474.944 54.6518 473.135 54.7504 471.491 54.9477C469.912 55.0793 468.4 55.2437 466.953 55.441C465.835 61.8204 464.881 67.4106 464.092 72.2116C463.369 77.0127 462.777 80.7285 462.316 83.3592C461.133 90.3963 459.521 96.6113 457.482 102.004C455.444 107.463 452.977 111.738 450.084 114.829C447.256 117.92 444.066 119.465 440.514 119.465ZM516.411 48.93C518.384 49.5877 519.042 51.6923 518.384 55.2437C517.792 58.5321 516.345 62.8727 514.043 68.2656H514.241L515.918 64.6155C518.154 59.9461 520.324 56.1644 522.429 53.2707C524.599 50.3769 527.131 48.93 530.025 48.93C531.932 48.93 533.609 49.5219 535.056 50.7058C534.464 52.5472 533.971 54.4545 533.576 56.4275C533.182 58.4005 532.886 60.3078 532.688 62.1493C531.439 62.7412 529.827 63.0042 527.854 62.9385C527.986 60.6366 527.953 59.124 527.756 58.4005C527.559 57.6113 527.23 57.2167 526.769 57.2167C526.112 57.2167 525.158 57.8744 523.908 59.1897C522.725 60.4393 521.311 62.6096 519.666 65.7007C518.614 67.7395 517.332 70.6332 515.819 74.382C514.372 78.0649 513.254 82.011 512.465 86.2201L510.788 95H501.712L507.236 66.2926C507.828 63.2015 508.124 60.9983 508.124 59.683C508.19 58.3676 507.763 57.5455 506.842 57.2167C505.987 56.8879 504.507 56.7235 502.403 56.7235C502.403 56 502.435 55.3095 502.501 54.6518C502.633 53.9941 502.83 53.4351 503.093 52.9747C504.145 52.8432 505.526 52.5801 507.236 52.1855C509.012 51.7251 510.755 51.199 512.465 50.6071C514.175 49.9494 515.49 49.3904 516.411 48.93ZM554.832 48.93C557.266 48.93 559.633 49.226 561.935 49.8179C564.237 50.4098 566.111 51.1661 567.558 52.0869C566.44 55.441 565.816 58.9924 565.684 62.7412C565.026 63.07 564.27 63.3002 563.415 63.4317C562.626 63.5633 561.771 63.629 560.85 63.629C560.85 59.7488 560.291 57.1181 559.173 55.7369C558.055 54.2901 556.378 53.5666 554.142 53.5666C552.235 53.5666 550.755 53.9612 549.703 54.7504C548.716 55.4739 548.091 56.3946 547.828 57.5127C547.434 59.2226 547.762 60.801 548.815 62.2479C549.933 63.6948 551.347 65.1746 553.057 66.6872C554.832 68.1341 556.575 69.7125 558.285 71.4224C559.995 73.1324 561.31 75.1054 562.231 77.3415C563.152 79.5776 563.316 82.2083 562.724 85.2336C562.001 88.8508 560.324 91.5472 557.693 93.3229C555.063 95.0329 551.741 95.8879 547.73 95.8879C544.704 95.8879 542.008 95.4933 539.64 94.704C537.273 93.8491 535.398 92.9612 534.017 92.0405C534.609 89.9359 535.004 87.9958 535.201 86.2201C535.464 84.4444 535.628 82.8002 535.694 81.2875C537.207 80.5641 538.785 80.2681 540.429 80.3997C540.298 83.6223 540.791 86.253 541.909 88.2917C543.027 90.3305 545.165 91.3499 548.321 91.3499C550.294 91.3499 551.807 90.9882 552.859 90.2648C553.977 89.4756 554.668 88.489 554.931 87.3052C555.26 85.661 554.898 84.1155 553.846 82.6686C552.859 81.156 551.511 79.6433 549.801 78.1307C548.157 76.5523 546.513 74.8752 544.869 73.0995C543.29 71.258 542.041 69.2192 541.12 66.9831C540.199 64.7471 540.035 62.1821 540.627 59.2884C541.284 56 542.83 53.468 545.263 51.6923C547.697 49.8508 550.886 48.93 554.832 48.93ZM584.247 95.8879C580.103 95.8879 577.374 94.3094 576.058 91.1526C574.809 87.93 575.006 82.7673 576.65 75.6644L581.287 55.2437C580.103 55.1122 578.886 54.9806 577.637 54.8491C576.387 54.7176 575.171 54.6518 573.987 54.6518C573.987 53.1391 574.349 51.8567 575.072 50.8044H582.372L582.569 49.8179C583.293 46.7926 583.885 44.129 584.345 41.8272C584.806 39.4596 585.069 37.5852 585.134 36.2041C586.45 36.0068 587.831 35.7108 589.278 35.3162C590.79 34.8558 592.007 34.3626 592.928 33.8365C593.454 34.0995 593.816 34.5599 594.013 35.2176C594.21 35.8752 594.21 37.0262 594.013 38.6703C593.816 40.2488 593.322 42.6821 592.533 45.9705L591.448 50.8044H602.596C602.596 52.3828 602.365 53.6653 601.905 54.6518C599.209 54.6518 596.94 54.7176 595.098 54.8491C593.257 54.9806 591.678 55.145 590.363 55.3423L585.726 74.9739C584.477 80.3668 584.115 84.1813 584.641 86.4174C585.233 88.6535 586.351 89.7715 587.995 89.7715C589.113 89.7715 590.33 89.344 591.645 88.489C593.026 87.6341 594.243 86.5818 595.295 85.3322C596.413 85.9899 597.104 87.0422 597.367 88.489C596.052 90.199 594.177 91.8761 591.744 93.5202C589.376 95.0987 586.877 95.8879 584.247 95.8879Z" fill="#33CB9A"/>
</svg>
